<svg width="11" height="12" viewBox="0 0 11 12" fill="none" xmlns="http://www.w3.org/2000/svg">
<path opacity="0.1" d="M11 4.13241C11 6.40161 9.34307 8.24114 7.29917 8.24114C7.06324 8.24114 6.83257 8.21635 6.6089 8.1695L6.10399 8.80014C6.05664 8.85928 5.99855 8.90661 5.93354 8.93902C5.86852 8.97144 5.79806 8.98819 5.7268 8.98819H4.94409V9.922C4.94409 10.2314 4.71815 10.4823 4.43943 10.4823H3.59834V11.4161C3.59834 11.7255 3.3724 11.9764 3.09368 11.9764H0.738606C0.459888 11.9764 0.233948 11.7255 0.233948 11.4161V9.59379C0.233948 9.4452 0.287126 9.30267 0.38175 9.1976L3.78403 5.42029C3.66369 5.01516 3.59834 4.58227 3.59834 4.13238C3.59834 1.86318 5.25524 0.0236459 7.29914 0.0236225C9.34909 0.0235992 11 1.85648 11 4.13241ZM7.29917 3.01181C7.29917 3.63069 7.75104 4.13238 8.30848 4.13238C8.86592 4.13238 9.3178 3.63069 9.3178 3.01181C9.3178 2.39293 8.86592 1.89124 8.30848 1.89124C7.75104 1.89124 7.29917 2.39293 7.29917 3.01181Z" fill="black"/>
</svg>
